<?xml version="1.0" encoding="UTF-8"?>
<svg xmlns="http://www.w3.org/2000/svg" viewBox="0 0 128 128">
  <path fill="#6C78AF" d="M64 0C28.7 0 0 28.7 0 64s28.7 64 64 64 64-28.7 64-64S99.3 0 64 0zm-8.3 83.5c-1.3 3.6-3 7-5.3 10.1-2.3 3.1-5 5.6-8.3 7.4-3.3 1.9-7.1 2.8-11.4 2.8-3.5 0-6.7-.6-9.6-1.7-2.9-1.1-5.4-2.7-7.4-4.7-2-2-3.6-4.4-4.7-7.1-1.1-2.7-1.7-5.7-1.7-8.9 0-3.3.6-6.3 1.7-9 1.1-2.7 2.7-5 4.7-7 2-2 4.4-3.5 7.4-4.6 2.9-1.1 6.1-1.7 9.6-1.7 3.5 0 6.7.6 9.6 1.7 2.9 1.1 5.4 2.7 7.4 4.7 2 2 3.6 4.4 4.7 7.1 1.1 2.7 1.7 5.7 1.7 8.9 0 3.3-.6 6.3-1.7 9zm56.7-36.8c-1.3 3.6-3 7-5.3 10.1-2.3 3.1-5 5.6-8.3 7.4-3.3 1.9-7.1 2.8-11.4 2.8-3.5 0-6.7-.6-9.6-1.7-2.9-1.1-5.4-2.7-7.4-4.7-2-2-3.6-4.4-4.7-7.1-1.1-2.7-1.7-5.7-1.7-8.9 0-3.3.6-6.3 1.7-9 1.1-2.7 2.7-5 4.7-7 2-2 4.4-3.5 7.4-4.6 2.9-1.1 6.1-1.7 9.6-1.7 3.5 0 6.7.6 9.6 1.7 2.9 1.1 5.4 2.7 7.4 4.7 2 2 3.6 4.4 4.7 7.1 1.1 2.7 1.7 5.7 1.7 8.9 0 3.3-.6 6.3-1.7 9z"/>
</svg>
